<?xml version="1.0" encoding="utf-8"?>
<!-- Generator: Adobe Illustrator 16.0.0, SVG Export Plug-In . SVG Version: 6.00 Build 0)  -->
<!DOCTYPE svg PUBLIC "-//W3C//DTD SVG 1.1//EN" "http://www.w3.org/Graphics/SVG/1.1/DTD/svg11.dtd">
<svg version="1.1" id="Layer_1" xmlns="http://www.w3.org/2000/svg" xmlns:xlink="http://www.w3.org/1999/xlink" x="0px" y="0px"
	 width="100px" height="100px" viewBox="0 0 100 100" enable-background="new 0 0 100 100" xml:space="preserve">
<g id="그룹_4963" transform="translate(-1343 -1049)">
	<rect id="사각형_1849" x="1363.924" y="1056.302" fill="none" width="59.99" height="60"/>
</g>
<text transform="matrix(1 0 0 1 34.7866 90.1133)" fill="#FFFFFF" font-family="'NanumGothicBold'" font-size="17.1666">학교</text>
<rect x="1.345" y="0.441" fill="none" width="99.999" height="100"/>
<rect id="사각형_1843" x="20.922" y="7.072" fill="none" width="60" height="60"/>
<g id="그룹_4952" transform="translate(191.02 1569.299)">
	<path id="패스_722" fill="#FFFFFF" d="M-116.057-1546.538v37.159c0,1.292-1.049,2.34-2.34,2.342h-42.559
		c-1.293-0.002-2.341-1.049-2.342-2.342v-37.159h-1.8v37.159c0.003,2.285,1.855,4.139,4.142,4.141h42.559
		c2.285-0.002,4.139-1.854,4.141-4.141v-37.159H-116.057z"/>
	<path id="패스_723" fill="#FFFFFF" d="M-160.219-1511.951c0.152,0.107,0.334,0.166,0.52,0.166c0.103,0,0.204-0.018,0.3-0.051
		c0.081-0.029,8.219-2.801,19.505,0.023c0.017,0,0.033,0,0.049,0.006c0.018,0.006,0.063,0.01,0.095,0.014
		c0.038,0.002,0.075,0.002,0.112,0c0.033,0,0.063-0.006,0.095-0.01c0.036-0.006,0.075-0.016,0.112-0.025
		c0.019-0.004,0.035-0.006,0.051-0.012c0.082-0.027,8.257-2.789,19.509,0.023c0.069,0.019,0.146,0.026,0.217,0.026
		c0.2,0,0.396-0.065,0.556-0.19c0.219-0.17,0.346-0.433,0.346-0.709v-37.253c0-0.365-0.221-0.695-0.561-0.833
		c-1.138-0.463-2.303-0.854-3.488-1.171v-7.381c0-0.322-0.172-0.621-0.451-0.781s-0.622-0.161-0.9,0l-15.658,9.146
		c-11.283-4.375-19.932,0.029-20.301,0.222c-0.297,0.156-0.483,0.464-0.482,0.8v37.253
		C-160.597-1512.397-160.456-1512.121-160.219-1511.951z M-123.19-1523.496c0.241-0.168,0.385-0.443,0.385-0.738v-25.834
		c0.754,0.216,1.506,0.457,2.25,0.741v35.5c-5.131-1.184-10.438-1.385-15.643-0.588L-123.19-1523.496z M-138.551-1549.614
		l13.947-8.146v33.057l-13.947,9.74V-1549.614z M-158.799-1549.363c5.859-2.3,12.373-2.287,18.222,0.035v35.5
		c-3.123-0.703-6.314-1.063-9.515-1.066c-2.933-0.022-5.857,0.314-8.707,1.008V-1549.363z"/>
</g>
</svg>
