<?xml version="1.0" encoding="utf-8"?>
<!-- Generator: Adobe Illustrator 16.0.0, SVG Export Plug-In . SVG Version: 6.00 Build 0)  -->
<!DOCTYPE svg PUBLIC "-//W3C//DTD SVG 1.1//EN" "http://www.w3.org/Graphics/SVG/1.1/DTD/svg11.dtd">
<svg version="1.1" id="Layer_1" xmlns="http://www.w3.org/2000/svg" xmlns:xlink="http://www.w3.org/1999/xlink" x="0px" y="0px"
	 width="100px" height="100px" viewBox="0 0 100 100" enable-background="new 0 0 100 100" xml:space="preserve">
<rect id="사각형_1849" x="19.58" y="6.86" fill="none" width="59.99" height="60"/>
<g id="그룹_4955" transform="translate(-105.957 1569.125)">
	<path id="패스_734" fill="#FFFFFF" d="M146.733-1512.473c0.497,0,0.9-0.403,0.9-0.899l0,0v-38.694c0-0.497-0.403-0.9-0.9-0.9l0,0
		h-7.649c-0.497,0-0.899,0.403-0.899,0.9l0,0v38.694c0,0.496,0.402,0.899,0.899,0.899l0,0H146.733z M139.984-1551.166h5.849v36.893
		h-5.849V-1551.166z"/>
	<path id="패스_735" fill="#FFFFFF" d="M152.58-1545.767h13.038c0.497,0,0.899-0.403,0.899-0.9l0,0v-5.4
		c0-0.497-0.402-0.9-0.899-0.9l0,0H152.58c-0.497,0-0.899,0.403-0.899,0.9l0,0v5.4
		C151.68-1546.169,152.082-1545.767,152.58-1545.767L152.58-1545.767z M153.479-1551.167h11.237v3.6h-11.237V-1551.167z"/>
	<path id="패스_736" fill="#FFFFFF" d="M151.68-1535.869c0,0.498,0.402,0.9,0.899,0.9l0,0h13.038c0.497,0,0.899-0.402,0.899-0.9
		l0,0v-5.399c0-0.497-0.402-0.9-0.899-0.9l0,0h-13.038c-0.497,0-0.899,0.403-0.899,0.9l0,0V-1535.869z M153.479-1540.369h11.237v3.6
		h-11.237V-1540.369z"/>
	<path id="패스_737" fill="#FFFFFF" d="M151.68-1525.071c0,0.498,0.402,0.9,0.899,0.9l0,0h13.038c0.497,0,0.899-0.402,0.899-0.9
		l0,0v-5.398c0-0.497-0.402-0.899-0.899-0.899l0,0h-13.038c-0.497,0-0.899,0.402-0.899,0.899l0,0V-1525.071z M153.479-1529.571
		h11.237v3.602h-11.237V-1529.571z"/>
	<path id="패스_738" fill="#FFFFFF" d="M151.68-1514.271c0,0.496,0.402,0.899,0.899,0.899l0,0h13.038
		c0.497,0,0.899-0.403,0.899-0.899l0,0v-5.4c0-0.496-0.402-0.9-0.899-0.9l0,0h-13.038c-0.497,0-0.899,0.404-0.899,0.9l0,0V-1514.271
		z M153.479-1518.772h11.237v3.6h-11.237V-1518.772z"/>
	<path id="패스_739" fill="#FFFFFF" d="M180.47-1553.866h-6.4c-0.521-3.112-3.211-5.395-6.366-5.4h-30.708
		c-3.567,0.004-6.458,2.896-6.462,6.463v39.879c0,0.497,0.403,0.898,0.9,0.898l0,0c0.497,0,0.899-0.401,0.899-0.898l0,0v-39.879
		c0.004-2.574,2.09-4.66,4.663-4.663h30.708c2.573,0.003,4.66,2.089,4.662,4.663v39.879c0,0.497,0.402,0.898,0.9,0.898l0,0
		c0.496,0,0.9-0.401,0.9-0.898l0,0v-16.646h6.298c0.498,0,0.9-0.403,0.9-0.9l0,0v-22.5
		C181.364-1553.464,180.964-1553.864,180.47-1553.866z M179.569-1531.366h-5.399v-20.7h5.399V-1531.366z"/>
	<path id="패스_740" fill="#FFFFFF" d="M180.47-1508.424h-49.031c-0.497,0-0.9,0.402-0.9,0.898l0,0c0,0.498,0.403,0.9,0.9,0.9l0,0
		h49.031c0.496,0,0.9-0.402,0.9-0.898c0-0.002,0-0.002,0-0.002C181.37-1508.021,180.966-1508.424,180.47-1508.424L180.47-1508.424z"
		/>
</g>
<text transform="matrix(1 0 0 1 33.4414 89.6719)" fill="#FFFFFF" font-family="'NanumGothicBold'" font-size="17.1666">호텔</text>
<rect x="0" fill="none" width="99.999" height="100"/>
</svg>
