<?xml version="1.0" encoding="utf-8"?>
<!-- Generator: Adobe Illustrator 16.0.0, SVG Export Plug-In . SVG Version: 6.00 Build 0)  -->
<!DOCTYPE svg PUBLIC "-//W3C//DTD SVG 1.1//EN" "http://www.w3.org/Graphics/SVG/1.1/DTD/svg11.dtd">
<svg version="1.1" id="Layer_1" xmlns="http://www.w3.org/2000/svg" xmlns:xlink="http://www.w3.org/1999/xlink" x="0px" y="0px"
	 width="100px" height="100px" viewBox="0 0 100 100" enable-background="new 0 0 100 100" xml:space="preserve">
<text transform="matrix(1 0 0 1 33.8623 91.5195)" fill="#FFFFFF" font-family="'NanumGothicBold'" font-size="17.1666">학원</text>
<g id="Group_5402" transform="translate(558.47 59.5)">
	<g id="Group_5401" transform="translate(318 992.5)">
		
			<rect id="Rectangle_2474" x="-851.001" y="-1040.021" fill="none" stroke="#FFFFFF" stroke-width="2" stroke-linecap="round" stroke-linejoin="round" width="49.06" height="34.346"/>
		
			<rect id="Rectangle_2475" x="-846.001" y="-1035.021" fill="none" stroke="#FFFFFF" stroke-width="2" stroke-linecap="round" stroke-linejoin="round" width="39.06" height="24.346"/>
		<g id="Group_5400" transform="translate(6.863)">
			<path id="Path_2467" fill="none" stroke="#FFFFFF" stroke-width="2" stroke-linecap="round" stroke-linejoin="round" d="
				M-851.001-1040.521"/>
			<path id="Path_2468" fill="none" stroke="#FFFFFF" stroke-width="2" stroke-linecap="round" stroke-linejoin="round" d="
				M-815.667-1040.521"/>
		</g>
		<path id="Rectangle_2476" fill="none" stroke="#FFFFFF" stroke-width="2" stroke-linecap="round" stroke-linejoin="round" d="
			M-838.46-1022.676h10c2.209,0,4,1.791,4,4v4c0,2.209-1.791,4-4,4h-10c-2.209,0-4-1.791-4-4v-4
			C-842.46-1020.885-840.669-1022.676-838.46-1022.676z"/>
		
			<line id="Line_467" fill="none" stroke="#FFFFFF" stroke-width="2" stroke-linecap="round" stroke-linejoin="round" x1="-836.622" y1="-1010.675" x2="-836.622" y2="-1022.676"/>
		
			<line id="Line_468" fill="none" stroke="#FFFFFF" stroke-width="2" stroke-linecap="round" stroke-linejoin="round" x1="-831.547" y1="-1010.675" x2="-831.547" y2="-1022.676"/>
	</g>
	
		<line id="Line_469" fill="none" stroke="#FFFFFF" stroke-width="2" stroke-linecap="round" stroke-linejoin="round" x1="-514.945" y1="-13.175" x2="-525.31" y2="4.952"/>
	
		<line id="Line_470" fill="none" stroke="#FFFFFF" stroke-width="2" stroke-linecap="round" stroke-linejoin="round" x1="-501.807" y1="-13.175" x2="-491.442" y2="4.952"/>
</g>
</svg>
