<?xml version="1.0" encoding="utf-8"?>
<!-- Generator: Adobe Illustrator 16.0.0, SVG Export Plug-In . SVG Version: 6.00 Build 0)  -->
<!DOCTYPE svg PUBLIC "-//W3C//DTD SVG 1.1//EN" "http://www.w3.org/Graphics/SVG/1.1/DTD/svg11.dtd">
<svg version="1.1" id="Layer_1" xmlns="http://www.w3.org/2000/svg" xmlns:xlink="http://www.w3.org/1999/xlink" x="0px" y="0px"
	 width="60px" height="60px" viewBox="0 0 60 60" enable-background="new 0 0 60 60" xml:space="preserve">
<g id="그룹_4958" transform="translate(-753 -1049)">
	<rect id="사각형_1844" x="753" y="1049" fill="none" width="60" height="60"/>
	<g id="그룹_4951" transform="translate(226.133 1569.801)">
		<path id="패스_717" d="M531.5-463.808h9v-18h-9V-463.808z M533.3-480.008h5.4v14.4h-5.4V-480.008z"/>
		<path id="패스_718" d="M559.4-463.808h9V-517.8h-9V-463.808z M561.2-516h5.399v50.392H561.2V-516z"/>
		<path id="패스_719" d="M573.346-502.5v38.7h9v-38.7H573.346z M580.547-465.6h-5.4v-35.1h5.4V-465.6z"/>
		<path id="패스_720" d="M545.451-463.808h9v-30.6h-9V-463.808z M547.251-492.608h5.4v27h-5.4V-492.608z"/>
		<path id="패스_721" d="M548.15-509.708v1.8h3.677l-20.96,20.96l1.272,1.271l20.96-20.96v3.677h1.8v-6.749H548.15z"/>
	</g>
</g>
</svg>
