<?xml version="1.0" encoding="utf-8"?>
<!-- Generator: Adobe Illustrator 16.0.0, SVG Export Plug-In . SVG Version: 6.00 Build 0)  -->
<!DOCTYPE svg PUBLIC "-//W3C//DTD SVG 1.1//EN" "http://www.w3.org/Graphics/SVG/1.1/DTD/svg11.dtd">
<svg version="1.1" id="Layer_1" xmlns="http://www.w3.org/2000/svg" xmlns:xlink="http://www.w3.org/1999/xlink" x="0px" y="0px"
	 width="100px" height="100px" viewBox="0 0 100 100" enable-background="new 0 0 100 100" xml:space="preserve">
<rect id="Rectangle_1848" x="19.668" y="6.961" fill="none" width="60" height="60"/>
<path id="Path_2466" fill="#FFFFFF" d="M75.252,35.775h-2.893C71.848,23.863,62.308,14.322,50.395,13.81v-2.893
	c0-0.528-0.428-0.957-0.956-0.957s-0.956,0.429-0.956,0.957v2.893c-11.913,0.511-21.455,10.052-21.966,21.965h-2.892
	c-0.528,0-0.956,0.428-0.956,0.956c0,0.528,0.428,0.956,0.956,0.956h2.892c0.511,11.912,10.053,21.456,21.966,21.965v2.893
	c0,0.527,0.428,0.957,0.956,0.957s0.956-0.43,0.956-0.957v-2.893c11.914-0.51,21.455-10.053,21.965-21.965h2.895
	c0.527,0,0.955-0.428,0.955-0.956C76.209,36.203,75.781,35.775,75.252,35.775L75.252,35.775z M70.447,35.775h-1.771
	c-0.5-9.883-8.397-17.782-18.28-18.283v-1.77C61.252,16.23,69.939,24.918,70.447,35.775L70.447,35.775z M63.422,33.219
	c-0.526,0-0.955,0.428-0.955,0.955v1.601H56.81v-0.7c0-0.527-0.429-0.956-0.957-0.956c-0.526,0-0.955,0.429-0.955,0.956l0,0v0.7
	h-1.918c-0.528,0-0.957,0.429-0.957,0.956s0.429,0.955,0.957,0.955l0,0h1.916v0.701c0,0.527,0.429,0.955,0.957,0.955
	c0.526,0,0.955-0.428,0.955-0.955v-0.701h5.657v1.602c0,0.527,0.429,0.955,0.957,0.955c0.527,0,0.955-0.428,0.955-0.955v-1.602
	h2.388c-0.495,8.828-7.543,15.876-16.371,16.371v-2.385h1.601c0.528,0,0.957-0.43,0.957-0.957c0-0.527-0.429-0.955-0.957-0.955
	h-1.601v-5.656h0.7c0.527,0,0.955-0.428,0.955-0.955s-0.428-0.957-0.955-0.957h-0.7v-1.918c0-0.527-0.428-0.955-0.956-0.955
	s-0.956,0.428-0.956,0.955l0,0v1.918h-0.7c-0.528,0-0.956,0.43-0.956,0.957s0.428,0.955,0.956,0.955h0.7v5.658h-1.6
	c-0.528,0-0.956,0.428-0.956,0.957c0,0.527,0.428,0.955,0.956,0.955h1.6v2.387c-8.829-0.494-15.876-7.543-16.371-16.371h2.385v1.6
	c0,0.527,0.428,0.957,0.956,0.957c0.528,0,0.956-0.43,0.956-0.957v-1.6h5.658v0.699c0,0.529,0.428,0.957,0.956,0.957
	c0.528,0,0.956-0.428,0.956-0.957V37.69h1.918c0.528,0,0.956-0.428,0.956-0.956c0-0.528-0.428-0.956-0.956-0.956h-1.918v-0.699
	c0-0.529-0.428-0.957-0.956-0.957c-0.528,0-0.956,0.428-0.956,0.957v0.699h-5.658v-1.6c0-0.528-0.428-0.956-0.956-0.956
	c-0.528,0-0.956,0.428-0.956,0.956v1.6H32.11c0.494-8.83,7.543-15.879,16.373-16.373v2.387h-1.6c-0.528,0-0.956,0.428-0.956,0.955
	c0,0.528,0.428,0.957,0.956,0.957h1.6v5.657h-0.7c-0.528,0-0.956,0.429-0.956,0.956c0,0.528,0.428,0.956,0.956,0.956l0,0h0.7v1.919
	c0,0.528,0.428,0.956,0.956,0.956c0.528,0,0.957-0.428,0.957-0.956v-1.919h0.699c0.528,0,0.956-0.428,0.956-0.956
	c0-0.527-0.428-0.956-0.956-0.956h-0.699v-5.655h1.601c0.526,0,0.955-0.429,0.955-0.957c0-0.527-0.429-0.955-0.955-0.955l0,0h-1.601
	v-2.389c8.828,0.495,15.875,7.543,16.369,16.371h-2.386v-1.6c0-0.528-0.426-0.957-0.954-0.959c0,0-0.001,0-0.003,0V33.219
	L63.422,33.219z M48.482,15.719v1.771c-9.886,0.498-17.789,8.4-18.287,18.287h-1.771c0.508-10.859,9.198-19.548,20.058-20.053
	V15.719z M28.428,37.684h1.767c0.5,9.883,8.4,17.783,18.283,18.283v1.77c-10.855-0.508-19.541-9.192-20.05-20.048L28.428,37.684
	L28.428,37.684z M50.396,57.74V55.97c9.883-0.5,17.783-8.4,18.282-18.283h1.771C69.941,48.545,61.254,57.234,50.396,57.74z"/>
<g id="그룹_4963" transform="translate(-1343 -1049)">
	<rect id="사각형_1849" x="1362.581" y="1055.961" fill="none" width="59.99" height="60"/>
</g>
<text transform="matrix(1 0 0 1 25.374 89.7725)" fill="#FFFFFF" font-family="'NanumGothicBold'" font-size="17.1666">군기관</text>
<rect x="0" y="0.101" fill="none" width="100" height="100"/>
</svg>
