<?xml version="1.0" encoding="utf-8"?>
<!-- Generator: Adobe Illustrator 16.0.0, SVG Export Plug-In . SVG Version: 6.00 Build 0)  -->
<!DOCTYPE svg PUBLIC "-//W3C//DTD SVG 1.1//EN" "http://www.w3.org/Graphics/SVG/1.1/DTD/svg11.dtd">
<svg version="1.1" id="Layer_1" xmlns="http://www.w3.org/2000/svg" xmlns:xlink="http://www.w3.org/1999/xlink" x="0px" y="0px"
	 width="100px" height="100px" viewBox="0 0 100 100" enable-background="new 0 0 100 100" xml:space="preserve">
<text transform="matrix(1 0 0 1 13.7271 89.6719)" fill="#F9F7F7" font-family="'NanumGothicBold'" font-size="17.1666">유통/운송</text>
<rect x="-0.469" y="0" fill="none" width="100" height="100"/>
<rect id="사각형_1846" x="19.269" y="6.86" fill="none" width="60" height="60.001"/>
<g id="그룹_4953" transform="translate(-34.622 1570.14)">
	<path id="패스_727" fill="#FCFCFC" d="M103.286-1533.509H99.51l0.015-4.631h7.347c0.498,0,0.899-0.403,0.899-0.899
		c0-0.001,0-0.001,0-0.001v-6.244h-1.8v5.344h-6.44l0.027-8.533c0.008-1.357-0.529-2.662-1.49-3.62
		c-0.957-0.963-2.258-1.504-3.615-1.5h-20.8c-1.355-0.003-2.658,0.537-3.613,1.5c-0.96,0.957-1.498,2.258-1.493,3.614l0.009,8.543
		h-6.227v-5.981h-1.8v6.882c0,0.496,0.403,0.899,0.9,0.899l0,0h7.129l0.005,4.631h-3.737c-3,0-4.934,2.29-4.934,5.835v16.051h5.1
		c0.445,2.881,2.923,5.01,5.839,5.016c2.916-0.006,5.394-2.135,5.84-5.016h14.765c0.444,2.881,2.924,5.01,5.839,5.016
		c2.916-0.006,5.395-2.135,5.839-5.016h5.1v-16.051C108.22-1531.219,106.283-1533.509,103.286-1533.509z M70.832-1508.408
		c-1.924-0.004-3.59-1.338-4.013-3.215h8.027C74.424-1509.745,72.758-1508.411,70.832-1508.408L70.832-1508.408z M97.278-1508.408
		c-1.927-0.004-3.592-1.338-4.015-3.215h8.024C100.868-1509.745,99.202-1508.411,97.278-1508.408L97.278-1508.408z M106.42-1513.423
		H61.69v-3.699h44.729V-1513.423z M61.69-1518.917v-8.756c0-0.947,0.226-4.035,3.134-4.035h5.538l-0.018-16.775
		c-0.003-0.878,0.345-1.721,0.968-2.341c0.619-0.623,1.461-0.972,2.339-0.969H94.45c0.879-0.002,1.724,0.348,2.343,0.971
		c0.622,0.621,0.97,1.466,0.965,2.345l-0.054,16.769h5.582c2.909,0,3.134,3.088,3.134,4.035v8.756H61.69z"/>
	<path id="패스_728" fill="#FCFCFC" d="M93.642-1547.666H74.469c-0.497,0-0.9,0.403-0.9,0.9l0,0v10.966c0,0.497,0.403,0.9,0.9,0.9
		l0,0h19.173c0.497,0,0.898-0.403,0.898-0.9l0,0v-10.966C94.54-1547.264,94.139-1547.666,93.642-1547.666z M92.743-1536.702H75.369
		v-9.166h17.375V-1536.702z"/>
	<path id="패스_729" fill="#FCFCFC" d="M62.328-1553.375c-0.053-2.209,1.691-4.045,3.9-4.105h35.852
		c2.209,0.06,3.952,1.896,3.898,4.105v2.856h1.8v-2.856c0.051-3.201-2.498-5.839-5.698-5.9H66.228c-3.201,0.061-5.75,2.699-5.7,5.9
		v2.856h1.8v-2.856H62.328z"/>
	<path id="패스_730" fill="#FCFCFC" d="M68.81-1528.939c-2.128-0.139-3.967,1.473-4.112,3.6c-0.138,2.129,1.472,3.967,3.6,4.111
		c0.087,0.006,0.172,0.008,0.258,0.008c2.032-0.004,3.715-1.578,3.853-3.607l0,0C72.549-1526.954,70.937-1528.794,68.81-1528.939z
		 M68.416-1523.025c-1.138-0.078-1.998-1.063-1.923-2.199c0.074-1.084,0.973-1.926,2.058-1.928c0.046,0,0.092,0,0.138,0
		c1.138,0.078,1.998,1.063,1.923,2.199c-0.077,1.139-1.059,2-2.196,1.926V-1523.025L68.416-1523.025z"/>
	<path id="패스_731" fill="#FCFCFC" d="M99.812-1528.939c-2.129-0.141-3.969,1.471-4.11,3.6c-0.07,1.023,0.271,2.031,0.948,2.801
		c0.673,0.771,1.627,1.244,2.65,1.311c0.088,0.004,0.175,0.008,0.262,0.008c0.937,0,1.838-0.34,2.539-0.957
		c0.772-0.674,1.245-1.629,1.312-2.652C103.55-1526.956,101.939-1528.794,99.812-1528.939z M101.614-1524.948
		c-0.035,0.547-0.287,1.057-0.701,1.414c-0.41,0.363-0.948,0.545-1.494,0.508c-0.547-0.035-1.058-0.287-1.418-0.699
		c-0.362-0.412-0.545-0.953-0.506-1.5c0.073-1.084,0.973-1.926,2.059-1.928c0.045,0,0.091,0,0.139,0
		c1.137,0.078,1.998,1.063,1.922,2.199V-1524.948L101.614-1524.948z"/>
	<rect id="사각형_1833" x="77.444" y="-1526.219" fill="#FCFCFC" width="13.229" height="1.801"/>
</g>
</svg>
