<?xml version="1.0" encoding="utf-8"?>
<!-- Generator: Adobe Illustrator 16.0.0, SVG Export Plug-In . SVG Version: 6.00 Build 0)  -->
<!DOCTYPE svg PUBLIC "-//W3C//DTD SVG 1.1//EN" "http://www.w3.org/Graphics/SVG/1.1/DTD/svg11.dtd">
<svg version="1.1" id="Layer_1" xmlns="http://www.w3.org/2000/svg" xmlns:xlink="http://www.w3.org/1999/xlink" x="0px" y="0px"
	 width="100px" height="100px" viewBox="0 0 100 100" enable-background="new 0 0 100 100" xml:space="preserve">
<rect id="사각형_1847" x="19.549" y="6.86" fill="none" width="60" height="60"/>
<g id="그룹_4954" transform="translate(-70.341 1570.356)">
	<path id="패스_732" fill="#FFFFFF" d="M144.898-1553.957c-2.852-2.91-6.758-4.546-10.833-4.539
		c-4.069-0.008-7.97,1.624-10.819,4.527l-3.109,3.028l-3.1-3.016c-2.853-2.91-6.758-4.546-10.833-4.539
		c-4.075-0.007-7.98,1.629-10.833,4.539c-3.306,3.342-4.919,8.003-4.386,12.674c0.052,0.495,0.495,0.854,0.989,0.8
		c0.001,0,0.002,0,0.003,0c0.495-0.052,0.854-0.496,0.8-0.99c0-0.001,0-0.002,0-0.003c-0.473-4.131,0.954-8.254,3.878-11.211
		c2.516-2.565,5.959-4.007,9.552-4c3.6-0.005,7.048,1.443,9.565,4.016l3.737,3.639c0.351,0.34,0.907,0.34,1.256,0l3.75-3.651
		c2.517-2.565,5.96-4.007,9.552-4c3.595-0.007,7.037,1.435,9.553,4c5.275,5.375,5.275,13.985,0,19.36l-23.481,23.759l-19.745-19.978
		c-0.349-0.354-0.919-0.356-1.273-0.007l0,0c-0.353,0.35-0.355,0.918-0.008,1.271l20.386,20.625c0.169,0.172,0.398,0.268,0.64,0.27
		c0.241-0.002,0.472-0.098,0.642-0.27l24.123-24.406C150.87-1538.136,150.868-1547.878,144.898-1553.957z"/>
	<path id="패스_733" fill="#FFFFFF" d="M105.521-1535.602l1.787-2.084l4.811,10.423c0.149,0.336,0.49,0.543,0.856,0.522
		c0.365-0.016,0.684-0.249,0.808-0.593l4.948-13.7l5.5,17.271c0.105,0.331,0.392,0.572,0.735,0.619
		c0.041,0.006,0.081,0.008,0.121,0.008c0.305,0,0.588-0.153,0.754-0.408l6.75-10.349c0.271-0.416,0.154-0.973-0.262-1.244
		c-0.416-0.271-0.976-0.154-1.246,0.262l-5.713,8.76l-5.725-17.989c-0.117-0.367-0.455-0.62-0.84-0.627
		c-0.385-0.008-0.732,0.231-0.863,0.594l-5.101,14.135l-4.48-9.707c-0.128-0.279-0.39-0.473-0.694-0.515
		c-0.303-0.042-0.607,0.073-0.807,0.306l-2.43,2.835h-9.034c-0.497,0-0.9,0.403-0.9,0.899l0,0c0,0.498,0.403,0.9,0.9,0.9l0,0h9.448
		C105.106-1535.288,105.352-1535.403,105.521-1535.602z"/>
</g>
<text transform="matrix(1 0 0 1 33.5522 89.6729)" fill="#FFFFFF" font-family="'NanumGothicBold'" font-size="17.1666">의료</text>
<rect x="-19.999" fill="none" width="119.999" height="100"/>
</svg>
